Coordinates
version=1
nRows=8
nColumns=40
inDegrees=yes

Units are S.I. units (second, meters, Newtons, ...)
Angles are in degrees.

endheader
time	pelvis_tilt	pelvis_list	pelvis_rotation	pelvis_tx	pelvis_ty	pelvis_tz	hip_flexion_r	hip_adduction_r	hip_rotation_r	knee_angle_r	knee_angle_r_beta	ankle_angle_r	subtalar_angle_r	mtp_angle_r	hip_flexion_l	hip_adduction_l	hip_rotation_l	knee_angle_l	knee_angle_l_beta	ankle_angle_l	subtalar_angle_l	mtp_angle_l	lumbar_extension	lumbar_bending	lumbar_rotation	arm_flex_r	arm_add_r	arm_rot_r	elbow_flex_r	pro_sup_r	wrist_flex_r	wrist_dev_r	arm_flex_l	arm_add_l	arm_rot_l	elbow_flex_l	pro_sup_l	wrist_flex_l	wrist_dev_l
     26.92500000	     -5.31961805	     -4.38313716	     -3.90469363	      1.05174898	      0.92742524	      0.43411352	     31.57660063	     -2.52964305	    -10.49930483	     20.14659361	     20.14659361	      1.51653319	      2.25820310	      4.58735605	      1.98099674	     -4.26063566	    -10.18902028	     12.93710130	     12.93710130	     17.29115032	     -7.16739597	     -1.66690654	    -11.20935272	      6.34891989	      3.73404476	     -6.14597127	    -14.40780243	     -2.92533635	     21.61735441	     47.04823239	      0.00000000	      0.00000000	     32.88203939	    -24.05275597	      6.50350116	     86.55133187	     47.09194858	      0.00000000	      0.00000000
     26.93650000	     -5.14347567	     -4.17946242	     -3.64607084	      1.05316325	      0.92585805	      0.43532340	     30.56069694	     -2.59578488	    -11.68866216	     18.26712862	     18.26712862	      1.91564179	      3.66193111	      5.91401313	      0.75364634	     -4.05397036	    -10.40192316	     12.19063978	     12.19063978	     17.63076793	     -6.26213671	     -2.16074896	    -11.18623623	      6.08063498	      3.79415802	     -8.31035297	    -14.29556473	     -3.11162538	     21.97789129	     47.01584664	      0.00000000	      0.00000000	     33.82712529	    -24.38988184	      7.32763668	     88.16307393	     47.09690780	      0.00000000	      0.00000000
     26.94800000	     -5.14025989	     -3.97546808	     -3.38722916	      1.05445758	      0.92389723	      0.43678220	     29.96921714	     -2.66051159	    -12.73495991	     17.26881496	     17.26881496	      2.51428377	      4.52239576	      8.10894777	     -0.08103558	     -3.94233372	    -10.68400560	     11.82326924	     11.82326924	     18.03750540	     -5.30437162	     -2.89861781	    -10.92127895	      5.79864300	      4.09087234	    -11.33583590	    -14.18810604	     -3.66491237	     24.64325333	     46.87548456	      0.00000000	      0.00000000	     35.05488260	    -24.90829523	      9.25214728	     89.33075518	     47.09004226	      0.00000000	      0.00000000
     26.95950000	     -5.09096048	     -3.84200703	     -3.11840313	      1.05587276	      0.92207452	      0.43845698	     29.25468527	     -2.58705486	    -13.51806186	     16.49930965	     16.49930965	      2.41904790	      4.67547732	      8.23692662	     -0.99144069	     -3.87796535	    -10.62997539	     11.42919836	     11.42919836	     18.50007862	     -4.82168732	     -2.99542480	    -10.68020331	      5.56682908	      4.06052216	    -12.99020269	    -13.94533591	     -3.67937075	     24.47531670	     46.85984899	      0.00000000	      0.00000000	     35.77023959	    -24.86009860	      9.30620224	     90.19482211	     47.12433570	      0.00000000	      0.00000000
     26.97100000	     -5.05174532	     -3.72510200	     -2.85499258	      1.05733560	      0.92014106	      0.44031061	     28.66537395	     -2.53935410	    -14.27849332	     16.27113926	     16.27113926	      1.92379540	      4.60327780	      6.75892642	     -1.71250474	     -3.94307639	    -10.97175631	     11.42467050	     11.42467050	     19.31484133	     -3.73505266	     -2.80012812	    -10.46295066	      5.38435010	      4.18078483	    -15.27976916	    -13.71518208	     -4.01089349	     26.11833264	     46.75915227	      0.00000000	      0.00000000	     36.51747725	    -25.21050873	     10.39545115	     91.28077475	     47.15801345	      0.00000000	      0.00000000
     26.98250000	     -5.11708865	     -3.67560702	     -2.57142067	      1.05868440	      0.91828820	      0.44228413	     28.26072130	     -2.43466130	    -14.73465565	     16.44539523	     16.44539523	      1.94024436	      4.23683046	      6.65521742	     -2.27549536	     -4.04441075	    -10.75171883	     11.44144020	     11.44144020	     19.74580022	     -3.64268375	     -2.92701411	    -10.04909829	      5.27486251	      3.83240241	    -16.40088558	    -13.49022648	     -4.00066860	     25.77755526	     46.76065302	      0.00000000	      0.00000000	     36.80548425	    -25.33698067	     10.26713321	     91.53978443	     47.17547851	      0.00000000	      0.00000000
     26.99400000	     -5.10682993	     -3.73510470	     -2.28368296	      1.06005308	      0.91675248	      0.44444079	     27.84958555	     -2.26126034	    -15.15637462	     16.95528481	     16.95528481	      1.97881901	      3.72991196	      6.31280384	     -2.87295124	     -4.30084785	    -10.53505241	     11.54908615	     11.54908615	     20.14506265	     -3.48805831	     -2.99890062	     -9.80604802	      5.28880649	      3.74709331	    -17.53003536	    -13.18553650	     -3.98532310	     25.48926285	     46.75868253	      0.00000000	      0.00000000	     37.01001780	    -25.38018415	     10.20819700	     92.03421027	     47.19373013	      0.00000000	      0.00000000
     27.00550000	     -5.03224026	     -3.84290412	     -2.12435773	      1.06140956	      0.91522066	      0.44707394	     27.39184265	     -1.86328684	    -14.77740374	     17.42459717	     17.42459717	      0.55210325	      1.93555845	      1.41011000	     -3.15011613	     -4.86006779	    -11.39438794	     12.58191802	     12.58191802	     21.55314348	     -1.86419130	     -2.03658239	     -9.82668916	      5.26193479	      4.14537560	    -19.21629300	    -12.88876770	     -4.47450186	     27.13802058	     46.67810766	      0.00000000	      0.00000000	     37.04101520	    -25.49773182	     10.92472045	     94.14873036	     47.26621119	      0.00000000	      0.00000000
